<svg xmlns="http://www.w3.org/2000/svg" xmlns:xlink="http://www.w3.org/1999/xlink" width="162.046" height="161.481" viewBox="0 0 42.875 42.725"><defs><filter color-interpolation-filters="sRGB" height="1.077" width="1.128" y="-.038" x="-.064" id="c"><feGaussianBlur stdDeviation=".57"/></filter><filter color-interpolation-filters="sRGB" height="1.834" width="1.469" y="-.417" x="-.234" id="e"><feGaussianBlur stdDeviation=".299"/></filter><filter color-interpolation-filters="sRGB" height="1.198" width="1.238" y="-.099" x="-.119" id="f"><feGaussianBlur stdDeviation=".467"/></filter><filter color-interpolation-filters="sRGB" height="1.104" width="1.089" y="-.052" x="-.045" id="g"><feGaussianBlur stdDeviation=".073"/></filter><filter color-interpolation-filters="sRGB" height="1.823" width="1.641" y="-.411" x="-.321" id="h"><feGaussianBlur stdDeviation="1.013"/></filter><filter color-interpolation-filters="sRGB" height="1.139" width="1.479" y="-.07" x="-.239" id="i"><feGaussianBlur stdDeviation=".28"/></filter><linearGradient gradientUnits="userSpaceOnUse" gradientTransform="matrix(.98495 0 0 .98605 .376 .641)" y2="27.266" y1="27.266" x2="40.761" x1="9.241" id="a"><stop offset="0" stop-color="#ece9df"/><stop offset="1" stop-color="#f4e0c8"/></linearGradient><linearGradient xlink:href="#a" y2=".498" y1=".498" x2="1.013" x1="-.012" id="b"/><linearGradient xlink:href="#a" y2=".374" y1=".374" x2="4.997" x1="-2.69" id="d"/></defs><g transform="matrix(.26458 0 0 .26458 8.285 64.551)"><g clip-rule="evenodd"><path fill-rule="evenodd" stroke-linecap="round" stroke-dashoffset="1.852" stroke="#000" fill="url(#b)" d="M345.035 336.04c11.547 9.628 16.63-2.807 20.713-12.213 5.59-15.81 28.51-7.303 34.93-27.18 11.323 44.34-39.458 33.574-37.055 81.044h113.544c7.651-88.412-20.008-149.684-103.828-141.152-8.334-8.704-19.969-14.232-19.969-14.232-4.517 8.34-4.049 18.866 2.668 22.888 1.756 1.604-14.108 8.314-11.982 31.567 0 0-12.77 21.269-20.22 35.247-5.426 10.926 4.296 25.058 18.142 26.356" transform="translate(-353.125 -465.625)"/><path fill-rule="evenodd" d="M17.774-203.805c-.071.004-.141.012-.212.024-11.77 1.914-13.408 13.032-13.408 13.032a2.202 2.202 0 004.315.874s.689-8.093 9.806-9.576a2.195 2.195 0 001.817-2.52 2.2 2.2 0 00-2.318-1.833z"/><path fill-rule="evenodd" d="M17.138-194.83a4.47 4.818 69.395 01-3.773 5.466 4.47 4.818 69.395 01-5.603-3.3 4.47 4.818 69.395 013.773-5.465 4.47 4.818 69.395 015.603 3.3zM-15.987-153.317a2.203 2.203 0 00-1.535.64c-1.754 1.745-2.676 3.397-3.116 4.69-.441 1.291-.376 2.465-.376 2.465a2.2 2.2 0 002.388 1.982c1.214-.108 2.86-.992 2.747-2.201 0 0-.055-.004.164-.648.22-.642.732-1.683 2.052-2.996.862-.857.111-2.435-.75-3.292a2.206 2.206 0 00-1.574-.64z"/><path fill-rule="evenodd" opacity=".15" filter="url(#c)" d="M392.687 240.342c68.392 2.568 77.188 59.727 70.376 137.348h14.104c7.013-81.043-15.655-139.277-84.04-141.847l-.44 4.499z" transform="translate(-353.125 -465.625)"/><path fill-rule="evenodd" stroke-linecap="round" stroke="#000" fill="url(#d)" d="M373.279 242.028s2.61-16.571 15.601-19.392c0 0 8.316 4.339 6.654 23.876" transform="translate(-353.125 -465.625)"/><path stroke-linecap="round" stroke="#000" fill="none" d="M-.838-138.057c-1.226 2.104-5.808 6.986-10.302 10.805"/><path fill-rule="evenodd" fill="#fff" opacity=".8" d="M-27.953-151.437l16.777-29.296 4.688-7.568s-3.188-17.658 10.876-29.523c-.002.004 2.219-2.457.012-4.424-2.21-1.968-7.744-8.515-3.01-17.344-.309-.088 1.096 19.223 17.413 19.455C3.126-215.14-5.641-200.18-1.801-185.808c-2.943 4.69-5.83 8.32-9.498 12.832-3.28 4.037-7.185 8.781-12.31 15.627a418.115 418.115 0 00-4.343 5.911z"/><path fill-rule="evenodd" fill="#fff" opacity=".7" d="M13.366-90.413c-2.975-37.739 40.336-35.18 37.753-70.44 4.414 43.884-31.534 36.516-37.753 70.44z"/><path fill-rule="evenodd" fill="#fff" filter="url(#e)" d="M330.49 314.488c-.06 2.281 6.347-7.518 12.242-1.748-2.393-5.696-8.872-7.577-12.242 1.748z" transform="translate(-353.125 -465.625)"/><path fill-rule="evenodd" fill="#fff" opacity=".8" d="M22.446-222.805s2.32-14.798 12.995-17.837c-6.214 7.885-6.98 20.615-12.995 17.837z"/><path fill-rule="evenodd" opacity=".15" filter="url(#f)" d="M402.246 293.013c1.618-4.719 1.302-12.158-.123-14.392-11.834 34.549-32.977 21.882-36.402 45.21 6.557-14.772 31.25-9.642 36.525-30.816z" transform="translate(-353.125 -465.625)"/><path fill-rule="evenodd" fill="#fff" opacity=".8" filter="url(#g)" d="M370.888 261.817c-12.867 2.452-13.62 13.056-13.62 13.056s-1.995.84-1.962-1.307c-.922-2.741 4.86-13.844 15.582-11.75z" transform="translate(-353.125 -465.625)"/><path fill-rule="evenodd" filter="url(#h)" fill="#fff" d="M391.712 279.518c-19.99-3.047-23.2 21.522-23.2 21.522 3.396-7.612 13.14-17.631 23.2-21.522z" transform="translate(-353.125 -465.625)"/><path stroke-linejoin="round" stroke-linecap="round" stroke="#000" fill="none" d="M47.554-168.977s1.594-3.636 2.975-13.948"/><path fill-rule="evenodd" opacity=".15" filter="url(#i)" d="M399.41 321.184c1.458-.104 21.482-24.861 4.245-38.483l-2.041 18.227c.43 6.727 1.748 13.435-2.203 20.256z" transform="translate(-353.125 -465.625)"/></g><ellipse stroke="#000" stroke-width="null" stroke-opacity="null" opacity="undefined" cx="46.36" cy="-189.003" rx="22.463" ry="11.495" transform="rotate(-9.712)"/><path fill="none" stroke="#000" stroke-width="null" stroke-opacity="null" opacity="undefined" stroke-linejoin="null" stroke-linecap="null" d="M31.508-195.491l51.656-22.594M-5.158-192.158l-4.334-.334"/><ellipse stroke="#000" stroke-width=".812" stroke-opacity="null" fill-opacity="null" opacity="undefined" cx="-195.642" cy="-46.209" rx="2.209" ry="3.036" transform="matrix(.26634 .96388 -.99473 .10249 0 0)"/><ellipse stroke="#000" stroke-width="null" stroke-opacity="null" fill-opacity="null" opacity="undefined" cx="-4.989" cy="-195.207" rx="1.196" ry="1.077"/></g></svg>